<svg xmlns="http://www.w3.org/2000/svg" width="269" height="25" viewBox="0 0 269 25">
    <path fill="#FFF" fill-rule="evenodd" d="M21.91 21.08c-1.047 1.206-2.339 2.16-3.875 2.864C16.5 24.648 14.73 25 12.725 25c-1.826 0-3.513-.302-5.06-.905-1.548-.603-2.889-1.458-4.025-2.563-1.135-1.106-2.026-2.43-2.671-3.972C.323 16.02 0 14.32 0 12.466c0-1.899.328-3.619.985-5.16.657-1.542 1.564-2.854 2.722-3.938S6.223 1.452 7.782.871C9.34.291 11.022 0 12.825 0c1.67 0 3.312.296 4.926.888 1.614.592 2.923 1.458 3.924 2.597l-3.874 3.888a4.797 4.797 0 0 0-2.104-1.642 6.958 6.958 0 0 0-2.672-.537c-1.002 0-1.92.185-2.755.553a6.464 6.464 0 0 0-2.154 1.525 6.95 6.95 0 0 0-1.403 2.296c-.334.882-.5 1.848-.5 2.898 0 1.073.166 2.056.5 2.95.334.893.796 1.658 1.386 2.295a6.241 6.241 0 0 0 2.12 1.491c.825.358 1.726.537 2.706.537 1.136 0 2.126-.224 2.973-.67.846-.447 1.525-1.028 2.037-1.743l3.974 3.753zm3.223 3.283V.637h5.745V19.37h9.15v4.993H25.134zm18.353 0V.637h5.745v23.726h-5.745zm32.849 0l.133-16.79h-.1l-6.145 16.79h-4.008l-5.978-16.79h-.1l.133 16.79h-5.377V.637h8.116l5.377 15.214h.133L73.663.637h8.25v23.726h-5.578zm27.27 0l-1.837-4.658h-9.15l-1.737 4.658h-6.213L94.588.637h5.544l9.819 23.726h-6.346zM97.26 6.971l-3.006 8.143h5.945l-2.94-8.143zm23.563-1.442v18.834h-5.711V5.53h-6.68V.637h19.07v4.892h-6.679zm10.07 18.834V.637h15.898v4.859h-10.387v4.457h9.82v4.591h-9.82v4.927h10.988v4.892h-16.498zm27.455-3.35h.066l5.912-20.41h2.872l5.912 20.41h.066l5.778-20.41h2.539l-6.98 23.727h-2.806l-5.945-20.376h-.067L159.75 24.33h-2.805L149.965.603h2.538l5.845 20.41zm26.97 3.317h-2.639L192.9.603h2.338L205.39 24.33h-2.672l-2.605-6.233H187.89l-2.571 6.233zm3.473-8.445h10.42l-5.21-12.6-5.21 12.6zm26.436 8.445h-2.405V2.748h-7.915V.603h18.235v2.145h-7.915V24.33zm31.145-3.82a9.857 9.857 0 0 1-1.453 1.708 9.23 9.23 0 0 1-1.97 1.408c-.747.402-1.57.72-2.472.955-.902.235-1.887.352-2.956.352-1.781 0-3.429-.313-4.943-.938-1.514-.626-2.816-1.492-3.907-2.598-1.091-1.105-1.943-2.418-2.555-3.937-.613-1.52-.919-3.184-.919-4.994 0-1.81.312-3.474.935-4.993.624-1.519 1.487-2.832 2.589-3.937a11.915 11.915 0 0 1 3.907-2.598C234.131.313 235.762 0 237.521 0c.869 0 1.72.09 2.555.268.835.179 1.62.43 2.355.754a9.843 9.843 0 0 1 2.004 1.173 6.847 6.847 0 0 1 1.503 1.558l-2.004 1.475a5.994 5.994 0 0 0-.986-1.14 6.7 6.7 0 0 0-1.452-1.005 9.07 9.07 0 0 0-1.82-.704 8.051 8.051 0 0 0-2.121-.268c-1.537 0-2.912.28-4.125.838a9.276 9.276 0 0 0-3.09 2.262 9.891 9.891 0 0 0-1.937 3.301 11.704 11.704 0 0 0-.668 3.954c0 1.386.229 2.704.685 3.955a10.121 10.121 0 0 0 1.954 3.3 9.276 9.276 0 0 0 3.09 2.263c1.213.558 2.577.838 4.09.838 1.359 0 2.65-.28 3.875-.838 1.224-.559 2.249-1.452 3.072-2.681l1.87 1.206zM251.299.602h2.405v10.288h12.891V.603H269V24.33h-2.405V13.103h-12.891V24.33h-2.405V.603z"/>
</svg>
